<?xml version="1.0" encoding="UTF-8" standalone="no"?><!DOCTYPE svg PUBLIC "-//W3C//DTD SVG 1.1//EN" "http://www.w3.org/Graphics/SVG/1.1/DTD/svg11.dtd"><svg width="100%" height="100%" viewBox="0 0 512 512" version="1.1" xmlns="http://www.w3.org/2000/svg" xmlns:xlink="http://www.w3.org/1999/xlink" xml:space="preserve" xmlns:serif="http://www.serif.com/" style="fill-rule:evenodd;clip-rule:evenodd;stroke-linejoin:round;stroke-miterlimit:1.41421;"><g><path d="M256,0c-141.167,0 -256,114.844 -256,256c0,141.156 114.833,256 256,256c141.167,0 256,-114.844 256,-256c0,-141.156 -114.833,-256 -256,-256Zm0,490.667c-129.396,0 -234.667,-105.271 -234.667,-234.667c0,-129.396 105.271,-234.667 234.667,-234.667c129.396,0 234.667,105.271 234.667,234.667c0,129.396 -105.271,234.667 -234.667,234.667Z" style="fill:#e2dfe1;fill-rule:nonzero;"/><path d="M357.771,247.031l-149.333,-96c-3.271,-2.135 -7.5,-2.25 -10.875,-0.396c-3.438,1.875 -5.563,5.459 -5.563,9.365l0,192c0,3.906 2.125,7.49 5.563,9.365c1.583,0.865 3.354,1.302 5.104,1.302c2,0 4.021,-0.563 5.771,-1.698l149.333,-96c3.042,-1.958 4.896,-5.344 4.896,-8.969c0,-3.625 -1.854,-7.01 -4.896,-8.969Zm-144.438,85.427l0,-152.916l118.938,76.458l-118.938,76.458Z" style="fill:#e2dfe1;fill-rule:nonzero;"/></g></svg>